HIERARCHY
ROOT Hips
{
 OFFSET 0.000000 0.000000 0.000000
 CHANNELS 6 Xposition Yposition Zposition Yrotation Xrotation Zrotation
 JOINT Chest
 {
  OFFSET 0.000000 9.585900 0.002600
  CHANNELS 3 Yrotation Xrotation Zrotation
  JOINT Chest2
  {
   OFFSET 0.000000 9.601200 -0.005300
   CHANNELS 3 Yrotation Xrotation Zrotation
   JOINT Chest3
   {
    OFFSET 0.000000 9.561800 0.000000
    CHANNELS 3 Yrotation Xrotation Zrotation
    JOINT Chest4
    {
     OFFSET 0.000000 9.552100 0.000000
     CHANNELS 3 Yrotation Xrotation Zrotation
     JOINT Neck
     {
      OFFSET 0.000000 14.453000 0.000000
      CHANNELS 3 Yrotation Xrotation Zrotation
      JOINT Head
      {
       OFFSET 0.000000 8.936500 -0.011300
       CHANNELS 3 Yrotation Xrotation Zrotation
       End Site
       {
        OFFSET 0.000000 17.073600 -0.006000
       }
      }
     }
     JOINT RightCollar
     {
      OFFSET -2.921100 9.558500 0.000000
      CHANNELS 3 Yrotation Xrotation Zrotation
      JOINT RightShoulder
      {
       OFFSET -13.519700 0.000000 0.000000
       CHANNELS 3 Yrotation Xrotation Zrotation
       JOINT RightElbow
       {
        OFFSET 0.000000 -29.696600 0.000000
        CHANNELS 3 Yrotation Xrotation Zrotation
        JOINT RightWrist
        {
         OFFSET 0.000000 -24.004700 0.000000
         CHANNELS 3 Yrotation Xrotation Zrotation
         End Site
         {
          OFFSET 0.000000 -17.728500 0.000000
         }
        }
       }
      }
     }
     JOINT LeftCollar
     {
      OFFSET 2.921100 9.558500 0.000000
      CHANNELS 3 Yrotation Xrotation Zrotation
      JOINT LeftShoulder
      {
       OFFSET 13.519700 0.000000 0.000000
       CHANNELS 3 Yrotation Xrotation Zrotation
       JOINT LeftElbow
       {
        OFFSET 0.000000 -29.696600 0.000000
        CHANNELS 3 Yrotation Xrotation Zrotation
        JOINT LeftWrist
        {
         OFFSET 0.000000 -24.004700 0.000000
         CHANNELS 3 Yrotation Xrotation Zrotation
         End Site
         {
          OFFSET 0.000000 -17.728500 0.000000
         }
        }
       }
      }
     }
    }
   }
  }
 }
 JOINT RightHip
 {
  OFFSET -7.771700 -0.012900 -0.001300
  CHANNELS 3 Yrotation Xrotation Zrotation
  JOINT RightKnee
  {
   OFFSET 0.000000 -40.869800 0.001200
   CHANNELS 3 Yrotation Xrotation Zrotation
   JOINT RightAnkle
   {
    OFFSET 0.000000 -39.717900 0.002100
    CHANNELS 3 Yrotation Xrotation Zrotation
    JOINT RightToe
    {
     OFFSET 0.000000 -4.965400 11.033500
     CHANNELS 3 Yrotation Xrotation Zrotation
     End Site
     {
      OFFSET 0.000000 -1.423100 5.872300
     }
    }
   }
  }
 }
 JOINT LeftHip
 {
  OFFSET 7.771700 -0.012900 -0.001300
  CHANNELS 3 Yrotation Xrotation Zrotation
  JOINT LeftKnee
  {
   OFFSET 0.000000 -40.869800 0.001200
   CHANNELS 3 Yrotation Xrotation Zrotation
   JOINT LeftAnkle
   {
    OFFSET 0.000000 -39.717900 0.002100
    CHANNELS 3 Yrotation Xrotation Zrotation
    JOINT LeftToe
    {
     OFFSET 0.000000 -4.965400 11.033500
     CHANNELS 3 Yrotation Xrotation Zrotation
     End Site
     {
      OFFSET 0.000000 -1.423100 5.872300
     }
    }
   }
  }
 }
}
MOTION
Frames: 5
Frame Time: 0.008333
0.000000 85.388000 0.000000 0.000000 -5.767877 0.000000 0.000000 11.653817 0.000000 0.000000 -5.885947 0.000000 0.000000 -0.000000 0.000000 0.000000 -0.000000 0.000000 0.000000 12.528835 0.000000 0.000000 0.711642 0.000000 0.000000 -0.000000 0.000000 0.000000 0.000000 -90.000000 0.000000 -2.309062 0.000000 0.000000 2.309062 0.000000 0.000000 -0.000000 0.000000 0.000000 -0.000000 90.000000 0.000000 -2.309062 0.000000 0.000000 2.309062 0.000000 0.000000 8.520406 0.000000 0.000000 1.905762 0.000000 -0.000000 -4.658285 0.000000 0.000000 -0.000000 0.000000 0.000000 8.520406 0.000000 0.000000 1.905762 0.000000 -0.000000 -4.658285 0.000000 0.000000 -0.000000 0.000000
-16.250412 58.747667 58.193668 179.869262 -21.674693 -2.287035 3.588171 19.918553 5.163476 0.301983 2.506887 0.389636 0.504456 4.108977 0.646242 2.470613 17.071020 3.006297 -4.276202 15.221341 -0.836461 -7.680919 -7.466135 0.013113 4.437323 -0.041129 -0.444093 11.885969 -33.524582 -19.194772 154.199687 -46.563298 -148.658959 16.581107 2.192609 -37.849602 -11.430255 -2.690282 -3.837339 8.626173 -30.343478 -1.173105 -144.920644 -38.794347 140.244860 -14.677139 3.167473 13.268055 4.794513 -48.379619 -3.206060 0.470818 70.009287 -4.308059 5.542414 3.748821 8.653529 -0.049778 0.150462 -0.021708 -6.324661 -55.729887 -0.679568 28.646048 61.745952 27.467627 -13.982053 36.377475 5.628814 0.156500 -18.785342 -7.175263
-16.248453 58.748584 58.195937 179.867911 -21.662632 -2.280918 3.549663 19.908333 5.145524 0.318751 2.506521 0.388090 0.492093 4.106323 0.643831 2.443826 17.066982 2.992407 -4.092763 15.260870 -0.877799 -7.321699 -7.402145 -0.133400 4.460646 -0.020919 -0.451199 11.561238 -33.753261 -19.007262 153.740838 -46.428832 -148.579283 16.506782 3.117347 -37.239017 -11.431636 -2.665126 -3.832598 9.116924 -30.565871 -1.507052 -144.463492 -38.955573 140.132460 -14.839184 3.687022 12.764100 4.793164 -48.392388 -3.222435 0.500981 70.007517 -4.264541 5.547421 3.747903 8.639671 -0.054243 0.150367 -0.023439 -6.366499 -55.738432 -0.636279 28.641542 61.742666 27.430179 -13.994540 36.387738 5.613412 0.174830 -18.786150 -7.169323
-16.244796 58.749318 58.198190 179.854793 -21.649144 -2.278458 3.523279 19.895199 5.135405 0.335812 2.507520 0.386213 0.500650 4.106416 0.642815 2.397146 17.056495 2.981904 -3.905219 15.302889 -0.917956 -6.955437 -7.332997 -0.279197 4.482310 0.004121 -0.461505 11.210493 -33.952262 -18.798258 153.073180 -46.250090 -148.363134 16.450483 3.869838 -36.673246 -11.414716 -2.622476 -3.820555 9.650202 -30.776845 -1.863194 -143.818650 -38.973359 139.947497 -14.985734 4.146565 12.335911 4.800410 -48.407503 -3.227676 0.518443 70.003571 -4.230299 5.544280 3.750440 8.624343 -0.050788 0.150704 -0.023761 -6.423200 -55.749610 -0.565515 28.651777 61.741924 27.403670 -14.029713 36.394913 5.581097 0.196739 -18.787158 -7.158222
-16.240567 58.748893 58.202046 179.824172 -21.622972 -2.272003 3.532334 19.867525 5.133043 0.315846 2.506335 0.384559 0.497064 4.103516 0.640346 2.409946 17.055635 2.976394 -3.739183 15.334182 -0.951195 -6.587860 -7.260089 -0.425791 4.435216 0.048351 -0.478657 10.874515 -34.147733 -18.569205 152.273172 -46.056569 -148.060247 16.406318 4.488790 -36.154211 -11.411280 -2.569526 -3.798125 10.214524 -30.973076 -2.239917 -142.992375 -38.858753 139.693683 -15.103000 4.541947 12.009019 4.824542 -48.438618 -3.233916 0.541837 69.998030 -4.187801 5.540699 3.758045 8.611902 -0.046356 0.152583 -0.027642 -6.480446 -55.774554 -0.476877 28.644202 61.747975 27.356711 -14.063595 36.404552 5.539354 0.221310 -18.789912 -7.142807
